# xmcd
# Track frame offsets:
# 150
# 16610
# 30437
# 46366
# 63395
# 77921
# 94142
# 112073
# 127245
# 143110
# 156504
#
# Disc length: 2270 seconds
# Revision: 0
# Processed by: cddbd v1.5.2PL0 Copyright (c) Steve Scherf et al.
# Submitted via: VisiTrax 2.11.2.271 - For more info visit www.synapsa.com
#
DISCID=9308dc0b
DTITLE=Morrison, Craig - Craig Mo4rrison
DYEAR=2012
DGENRE=Country
TTITLE0=Just Another Sundown
TTITLE1=Heart Broke Down
TTITLE2=Fences
TTITLE3=Where I'm At
TTITLE4=Wasted On Me
TTITLE5=Somebody's Girl
TTITLE6=Reminisce
TTITLE7=I Love You More
TTITLE8=Doin'Country
TTITLE9=Stay Up Late
TTITLE10=Hot Kinda Love
EXTD=
EXTT0=
EXTT1=
EXTT2=
EXTT3=
EXTT4=
EXTT5=
EXTT6=
EXTT7=
EXTT8=
EXTT9=
EXTT10=
PLAYORDER=
